<svg width="175" height="228" viewBox="0 0 175 228" fill="none" xmlns="http://www.w3.org/2000/svg">
<path d="M152.748 0L21.436 0.0637381C9.61435 0.0637381 0 9.67876 0 21.5013V178.823C0 190.646 9.67801 200.261 21.5634 200.261H29.119V207.032C29.119 207.775 29.4799 208.496 30.0741 208.942L38.3939 215.182V224.776C38.3939 226.092 39.455 227.153 40.7709 227.153H56.6677C57.9836 227.153 59.0447 226.092 59.0447 224.776V215.182L67.3644 208.942C67.9587 208.496 68.3195 207.775 68.3195 207.032V200.261H105.801V207.032C105.801 207.775 106.162 208.496 106.756 208.942L115.076 215.182V224.776C115.076 226.092 116.137 227.153 117.453 227.153H133.349C134.665 227.153 135.726 226.092 135.726 224.776V215.182L144.046 208.942C144.64 208.496 145.001 207.775 145.001 207.032V200.261H152.684C164.506 200.261 174.12 190.667 174.12 178.887V21.4375C174.12 9.61502 164.506 0 152.684 0H152.748ZM63.5865 205.843L55.2668 212.084C54.6726 212.529 54.3117 213.251 54.3117 213.994V222.399H43.1692V213.994C43.1692 213.251 42.8085 212.529 42.2142 212.084L33.8944 205.843V200.325H63.5865V205.843ZM140.29 205.843L131.97 212.084C131.376 212.529 131.015 213.251 131.015 213.994V222.399H119.872V213.994C119.872 213.251 119.511 212.529 118.917 212.084L110.597 205.843V200.325H140.29V205.843ZM169.409 92.3301H159.837C158.521 92.3301 157.46 93.3914 157.46 94.7074C157.46 96.0233 158.521 97.0846 159.837 97.0846H169.409V113.492H159.837C158.521 113.492 157.46 114.553 157.46 115.869C157.46 117.185 158.521 118.246 159.837 118.246H169.409V134.654H159.837C158.521 134.654 157.46 135.715 157.46 137.031C157.46 138.347 158.521 139.408 159.837 139.408H169.409V178.845C169.409 188.014 161.917 195.464 152.727 195.464H21.5634C12.2885 195.464 4.75412 187.971 4.75412 178.781V139.408H14.3261C15.642 139.408 16.7032 138.347 16.7032 137.031C16.7032 135.715 15.642 134.654 14.3261 134.654H4.75412V118.246H14.3261C15.642 118.246 16.7032 117.185 16.7032 115.869C16.7032 114.553 15.642 113.492 14.3261 113.492H4.75412V97.0846H14.3261C15.642 97.0846 16.7032 96.0233 16.7032 94.7074C16.7032 93.3914 15.642 92.3301 14.3261 92.3301H4.75412V21.5013C4.75412 12.3107 12.2461 4.81819 21.436 4.81819L152.748 4.75445C161.938 4.75445 169.43 12.247 169.43 21.4375V92.3301H169.409Z" fill="white"/>
<path d="M87.0813 35.2344C68.277 35.2344 52.9746 50.538 52.9746 69.3436C52.9746 88.1493 68.277 103.453 87.0813 103.453C105.886 103.453 121.188 88.1493 121.188 69.3436C121.188 50.538 105.886 35.2344 87.0813 35.2344ZM87.0813 98.6769C70.9088 98.6769 57.75 85.5173 57.75 69.3436C57.75 53.1699 70.9088 40.0101 87.0813 40.0101C103.254 40.0101 116.413 53.1699 116.413 69.3436C116.413 85.5173 103.254 98.6769 87.0813 98.6769Z" fill="white"/>
<path d="M96.9918 56.0774L85.4035 67.6663C84.4697 68.6002 84.4697 70.1072 85.4035 71.0411C85.8704 71.508 86.4859 71.7417 87.0801 71.7417C87.6744 71.7417 88.29 71.508 88.7569 71.0411L100.345 59.4521C101.279 58.5182 101.279 57.0113 100.345 56.0774C99.4112 55.1435 97.9044 55.1435 96.9705 56.0774H96.9918Z" fill="white"/>
<path d="M61.2729 163.584C58.7897 163.584 56.7734 165.6 56.7734 168.084C56.7734 170.567 58.7897 172.583 61.2729 172.583C63.7561 172.583 65.7723 170.567 65.7723 168.084C65.7723 165.6 63.7561 163.584 61.2729 163.584Z" fill="white"/>
<path d="M87.0815 163.584C84.5983 163.584 82.582 165.6 82.582 168.084C82.582 170.567 84.5983 172.583 87.0815 172.583C89.5647 172.583 91.5809 170.567 91.5809 168.084C91.5809 165.6 89.5647 163.584 87.0815 163.584Z" fill="white"/>
<path d="M112.912 163.584C110.428 163.584 108.412 165.6 108.412 168.084C108.412 170.567 110.428 172.583 112.912 172.583C115.395 172.583 117.411 170.567 117.411 168.084C117.411 165.6 115.395 163.584 112.912 163.584Z" fill="white"/>
<path d="M118.811 120.264H55.3732C54.0573 120.264 52.9961 121.325 52.9961 122.641V147.093C52.9961 148.408 54.0573 149.47 55.3732 149.47H118.811C120.127 149.47 121.188 148.408 121.188 147.093V122.641C121.188 121.325 120.127 120.264 118.811 120.264ZM116.434 144.715H57.7502V125.039H116.434V144.715Z" fill="white"/>
</svg>
