<svg width="218" height="206" viewBox="0 0 218 206" fill="none" xmlns="http://www.w3.org/2000/svg">
<path d="M213.936 78.3745C214.679 78.7141 215.549 78.6717 216.228 78.2259C216.929 77.7802 217.332 77.0373 217.332 76.2095V52.7131C217.332 51.8004 216.802 50.9514 215.974 50.5693L109.685 0.222866C109.048 -0.0742886 108.284 -0.0742886 107.647 0.222866L1.35836 50.5693C0.530627 50.9726 0 51.8004 0 52.7131V76.2095C0 77.0161 0.424518 77.7802 1.10368 78.2259C1.48571 78.4806 1.93136 78.5867 2.37706 78.5867C2.71664 78.5867 3.0774 78.5018 3.39576 78.3533L17.8916 71.4763V178.77H2.37706C1.06118 178.77 0 179.832 0 181.148V203.519C0 204.835 1.06118 205.896 2.37706 205.896H214.976C216.292 205.896 217.353 204.835 217.353 203.519V181.148C217.353 179.832 216.292 178.77 214.976 178.77H199.462V71.4763L213.957 78.3533L213.936 78.3745ZM4.73287 54.2201L108.645 4.99856L212.557 54.2201V72.4526L109.663 23.7193C109.027 23.4221 108.263 23.4221 107.626 23.7193L4.73287 72.4526V54.2201ZM212.557 201.184H4.73287V183.567H212.557V201.184ZM131.376 178.791H85.9141V118.533H131.376V178.791ZM194.665 178.791H136.151V116.156C136.151 114.84 135.09 113.778 133.774 113.778H83.5582C82.2424 113.778 81.1812 114.84 81.1812 116.156V178.791H22.6669V69.2264L108.687 28.4738L194.707 69.2264V178.791H194.665Z" fill="white"/>
<path d="M37.4395 82.8753C37.4395 84.1913 38.5006 85.2525 39.8165 85.2525H177.453C178.769 85.2525 179.83 84.1913 179.83 82.8753C179.83 81.5593 178.769 80.498 177.453 80.498H39.8165C38.5006 80.498 37.4395 81.5593 37.4395 82.8753Z" fill="white"/>
</svg>
