<svg width="212" height="228" viewBox="0 0 212 228" fill="none" xmlns="http://www.w3.org/2000/svg">
<path d="M2.3983 63.6099C3.71418 63.6099 4.77536 62.5487 4.77536 61.2327V44.8679L18.2315 39.5404C19.4624 39.0522 20.0565 37.6725 19.5683 36.4414C19.0802 35.2104 17.7007 34.616 16.4697 35.1042L1.50707 41.0262C0.594444 41.387 0 42.2572 0 43.2336V61.2115C0 62.5274 1.06118 63.5887 2.37706 63.5887L2.3983 63.6099Z" fill="white"/>
<path d="M43.3621 29.4376C43.6592 29.4376 43.9564 29.3739 44.2324 29.2678L64.225 21.3508C65.456 20.8626 66.0503 19.483 65.5622 18.252C65.074 17.0209 63.6945 16.4266 62.4636 16.9148L42.4706 24.8318C41.2396 25.3199 40.6454 26.6996 41.1335 27.9307C41.4943 28.8646 42.407 29.4376 43.3409 29.4376H43.3621Z" fill="white"/>
<path d="M209.756 41.0472L106.523 0.167244C105.95 -0.0662345 105.334 -0.0450092 104.782 0.167244L86.7633 7.29892C85.5323 7.7871 84.938 9.1668 85.4262 10.3979C85.787 11.3318 86.6997 11.9048 87.6336 11.9048C87.9307 11.9048 88.2279 11.8412 88.5038 11.7351L103.254 5.89811V116.843L4.7756 155.834V137.049C4.7756 135.733 3.71442 134.672 2.39854 134.672C1.08267 134.672 0.0214844 135.733 0.0214844 137.049V184.318C0.0214844 185.295 0.615669 186.165 1.52829 186.526L104.782 227.406C105.058 227.512 105.355 227.575 105.653 227.575C105.95 227.575 106.247 227.512 106.523 227.406L209.756 186.526C210.668 186.165 211.262 185.295 211.262 184.318V43.2546C211.262 42.2783 210.668 41.4081 209.756 41.0472ZM108.008 5.89811L206.487 44.889V155.834L181.379 145.9V82.6913C181.379 81.715 180.785 80.8446 179.872 80.4838L136.385 63.2701C135.642 62.9729 134.814 63.079 134.177 63.5035C133.519 63.9493 133.137 64.6923 133.137 65.4776V126.797L108.03 116.864V5.91922L108.008 5.89811ZM137.891 128.665V68.9585L176.625 84.2832V143.99L137.891 128.665ZM105.631 121.024L202.412 159.336L105.631 197.648L8.85067 159.336L105.631 121.024ZM105.631 222.63L4.7756 182.705V162.838L104.761 202.423C105.037 202.529 105.334 202.593 105.631 202.593C105.928 202.593 106.226 202.529 106.502 202.423L206.487 162.838V182.705L105.631 222.63Z" fill="white"/>
<path d="M2.39854 111.197C3.71442 111.197 4.7756 110.135 4.7756 108.82V86.3206C4.7756 85.0046 3.71442 83.9434 2.39854 83.9434C1.08267 83.9434 0.0214844 85.0046 0.0214844 86.3206V108.82C0.0214844 110.135 1.08267 111.197 2.39854 111.197Z" fill="white"/>
</svg>
