<svg width="212" height="212" viewBox="0 0 212 212" fill="none" xmlns="http://www.w3.org/2000/svg">
<path d="M64.5202 62.2767C65.8361 62.2767 66.8973 61.2154 66.8973 59.8994V32.7522C66.8973 31.4363 65.8361 30.375 64.5202 30.375H28.2911C26.9752 30.375 25.9141 31.4363 25.9141 32.7522V96.131C25.9141 97.447 26.9752 98.5082 28.2911 98.5082C29.607 98.5082 30.6682 97.447 30.6682 96.131V35.1295H62.1219V59.8994C62.1219 61.2154 63.1831 62.2767 64.499 62.2767H64.5202Z" fill="white"/>
<path d="M2.37719 124.444C3.69307 124.444 4.75425 123.383 4.75425 122.067V12.1621C4.75425 8.08681 8.06515 4.75445 12.1613 4.75445H80.6295C84.7044 4.75445 88.0366 8.06558 88.0366 12.1621V33.9817C88.0366 35.2977 89.0978 36.3589 90.4136 36.3589C91.7295 36.3589 92.7907 35.2977 92.7907 33.9817V12.1621C92.7907 5.45487 87.3362 0 80.6295 0H12.1613C5.45461 0 0 5.45487 0 12.1621V122.067C0 123.383 1.06131 124.444 2.37719 124.444Z" fill="white"/>
<path d="M131.736 105.13C132.67 106.064 134.177 106.064 135.11 105.13L154.318 85.921C154.764 85.4753 155.018 84.8598 155.018 84.2442C155.018 83.6287 154.764 83.0132 154.318 82.5675L128.701 56.9485C127.767 56.0146 126.26 56.0146 125.326 56.9485L80.5227 101.755C79.5888 102.689 79.5888 104.196 80.5227 105.13C80.9896 105.597 81.6052 105.83 82.1994 105.83C82.7937 105.83 83.4091 105.597 83.8761 105.13L127.003 62.0001L149.245 84.2442L131.736 101.755C130.802 102.689 130.802 104.196 131.736 105.13Z" fill="white"/>
<path d="M43.8488 105.149C44.3157 105.616 44.9312 105.85 45.5255 105.85C46.1197 105.85 46.7353 105.616 47.2022 105.149L124.903 27.4432C126.282 26.0635 128.15 25.2781 130.124 25.2781C132.098 25.2781 133.965 26.0423 135.366 27.4432L183.778 75.8581C186.664 78.7448 186.664 83.4355 183.778 86.3222L168.348 101.753C167.414 102.687 167.414 104.194 168.348 105.128C169.282 106.062 170.789 106.062 171.722 105.128L187.152 89.697C191.885 84.9638 191.885 77.2377 187.152 72.5045L138.741 24.0895C136.448 21.7972 133.392 20.5449 130.145 20.5449C126.898 20.5449 123.841 21.7972 121.549 24.0895L43.8488 101.795C42.915 102.729 42.915 104.236 43.8488 105.17V105.149Z" fill="white"/>
<path d="M199.08 118.459H46.3954C20.8207 118.459 0 139.281 0 164.858C0 190.434 20.8207 211.256 46.3954 211.256H199.08C205.786 211.256 211.241 205.801 211.241 199.094V130.621C211.241 123.914 205.786 118.459 199.08 118.459ZM206.487 199.094C206.487 203.169 203.176 206.502 199.08 206.502H46.3954C23.4312 206.502 4.75425 187.823 4.75425 164.858C4.75425 141.892 23.4312 123.213 46.3954 123.213H199.08C203.155 123.213 206.487 126.525 206.487 130.621V199.094Z" fill="white"/>
<path d="M46.3949 144.354C35.1038 144.354 25.8926 153.544 25.8926 164.857C25.8926 176.17 35.0826 185.361 46.3949 185.361C57.7072 185.361 66.8971 176.17 66.8971 164.857C66.8971 153.544 57.7072 144.354 46.3949 144.354ZM46.3949 180.585C37.7143 180.585 30.6679 173.538 30.6679 164.857C30.6679 156.176 37.7143 149.129 46.3949 149.129C55.0754 149.129 62.1217 156.176 62.1217 164.857C62.1217 173.538 55.0754 180.585 46.3949 180.585Z" fill="white"/>
<path d="M178.513 144.354H100.983C99.6667 144.354 98.6055 145.415 98.6055 146.731V182.962C98.6055 184.278 99.6667 185.34 100.983 185.34H178.513C179.829 185.34 180.89 184.278 180.89 182.962V146.731C180.89 145.415 179.829 144.354 178.513 144.354ZM176.115 180.585H103.36V149.129H176.115V180.585Z" fill="white"/>
</svg>
