<svg width="228" height="225" viewBox="0 0 228 225" fill="none" xmlns="http://www.w3.org/2000/svg">
<path d="M224.739 125.676H2.37706C1.06118 125.676 0 126.737 0 128.053C0 129.369 1.06118 130.43 2.37706 130.43H26.4026V157.747C21.7333 162.162 18.8255 168.381 18.8255 175.301C18.8255 182.22 21.7333 188.439 26.4026 192.854V222.569C26.4026 223.885 27.4638 224.947 28.7796 224.947C30.0955 224.947 31.1567 223.885 31.1567 222.569V196.377C34.6586 198.351 38.6911 199.476 42.9783 199.476C47.2655 199.476 51.2982 198.351 54.8001 196.377V222.569C54.8001 223.885 55.8613 224.947 57.1772 224.947C58.493 224.947 59.5542 223.885 59.5542 222.569V192.854C64.2235 188.439 67.131 182.22 67.131 175.301C67.131 168.381 64.2235 162.162 59.5542 157.747V130.43H96.9294V157.747C92.2601 162.162 89.3523 168.381 89.3523 175.301C89.3523 182.22 92.2601 188.439 96.9294 192.854V222.569C96.9294 223.885 97.9905 224.947 99.3064 224.947C100.622 224.947 101.683 223.885 101.683 222.569V196.377C105.185 198.351 109.218 199.476 113.505 199.476C117.792 199.476 121.825 198.351 125.327 196.377V222.569C125.327 223.885 126.388 224.947 127.704 224.947C129.02 224.947 130.081 223.885 130.081 222.569V192.854C134.75 188.439 137.658 182.22 137.658 175.301C137.658 168.381 134.75 162.162 130.081 157.747V130.43H167.456V157.747C162.787 162.162 159.879 168.381 159.879 175.301C159.879 182.22 162.787 188.439 167.456 192.854V222.569C167.456 223.885 168.517 224.947 169.833 224.947C171.149 224.947 172.21 223.885 172.21 222.569V196.377C175.712 198.351 179.745 199.476 184.032 199.476C188.319 199.476 192.352 198.351 195.854 196.377V222.569C195.854 223.885 196.915 224.947 198.231 224.947C199.547 224.947 200.608 223.885 200.608 222.569V192.854C205.277 188.439 208.185 182.22 208.185 175.301C208.185 168.381 205.277 162.162 200.608 157.747V130.43H224.633C225.949 130.43 227.01 129.369 227.01 128.053C227.01 126.737 225.949 125.676 224.633 125.676H224.739ZM42.9783 155.901C47.4777 155.901 51.5951 157.45 54.8848 160.018L27.6972 187.229C25.1291 183.939 23.5797 179.8 23.5797 175.322C23.5797 164.624 32.2815 155.922 42.9783 155.922V155.901ZM42.9783 194.722C38.4788 194.722 34.3614 193.172 31.0717 190.604L58.2593 163.414C60.8274 166.704 62.3769 170.843 62.3769 175.322C62.3769 186.019 53.6751 194.722 42.9783 194.722ZM54.8211 154.245C51.3191 152.271 47.2867 151.146 42.9995 151.146C38.7123 151.146 34.6799 152.271 31.178 154.245V130.43H54.8423V154.245H54.8211ZM113.548 155.901C118.047 155.901 122.164 157.45 125.454 160.018L98.2665 187.229C95.6984 183.939 94.1489 179.8 94.1489 175.322C94.1489 164.624 102.851 155.922 113.548 155.922V155.901ZM113.548 194.722C109.048 194.722 104.931 193.172 101.641 190.604L128.829 163.414C131.397 166.704 132.946 170.843 132.946 175.322C132.946 186.019 124.244 194.722 113.548 194.722ZM125.369 154.245C121.867 152.271 117.835 151.146 113.548 151.146C109.26 151.146 105.228 152.271 101.726 154.245V130.43H125.39V154.245H125.369ZM184.117 155.901C188.616 155.901 192.734 157.45 196.023 160.018L168.836 187.208C166.268 183.918 164.718 179.779 164.718 175.301C164.718 164.603 173.42 155.901 184.117 155.901ZM184.117 194.722C179.617 194.722 175.5 193.172 172.21 190.604L199.398 163.393C201.966 166.683 203.515 170.822 203.515 175.301C203.515 185.998 194.814 194.701 184.117 194.701V194.722ZM195.939 154.245C192.437 152.271 188.404 151.146 184.117 151.146C179.83 151.146 175.797 152.271 172.295 154.245V130.43H195.96V154.245H195.939Z" fill="white"/>
<path d="M2.35581 93.7311H224.718C226.034 93.7311 227.095 92.6698 227.095 91.3539C227.095 90.0379 226.034 88.9766 224.718 88.9766H130.123V69.0673C141.945 63.0181 150.074 50.7072 150.074 36.5287C150.074 16.3859 133.689 0 113.548 0C93.4061 0 77.0214 16.3859 77.0214 36.5287C77.0214 50.7072 85.129 62.9968 96.9719 69.0673V88.9766H2.37706C1.06118 88.9766 0 90.0379 0 91.3539C0 92.6698 1.06118 93.7311 2.37706 93.7311H2.35581ZM81.7755 36.5287C81.7755 19.0178 96.0166 4.75445 113.548 4.75445C131.078 4.75445 145.32 19.0178 145.32 36.5287C145.32 54.0396 131.057 68.3032 113.548 68.3032C96.0379 68.3032 81.7755 54.0608 81.7755 36.5287ZM101.726 71.0836C105.44 72.3571 109.409 73.0576 113.548 73.0576C117.686 73.0576 121.655 72.3571 125.369 71.0836V88.9766H101.705V71.0836H101.726Z" fill="white"/>
<path d="M115.224 38.2067L126.217 27.2122C127.151 26.2783 127.151 24.7711 126.217 23.8372C125.284 22.9032 123.777 22.9032 122.843 23.8372L111.849 34.832C110.915 35.7659 110.915 37.2728 111.849 38.2067C112.316 38.6737 112.931 38.9071 113.526 38.9071C114.12 38.9071 114.735 38.6737 115.202 38.2067H115.224Z" fill="white"/>
</svg>
