<svg width="201" height="201" viewBox="0 0 201 201" fill="none" xmlns="http://www.w3.org/2000/svg">
<path d="M177.092 0H23.5585C10.5695 0 0 10.5702 0 23.5601V177.104C0 190.094 10.5695 200.664 23.5585 200.664H177.092C190.081 200.664 200.65 190.094 200.65 177.104V23.5601C200.65 10.5702 190.081 0 177.092 0ZM195.875 177.125C195.875 187.483 187.449 195.931 177.071 195.931H23.5372C13.18 195.931 4.73294 187.504 4.73294 177.125V23.5813C4.73294 13.2234 13.1588 4.7757 23.5372 4.7757H177.071C187.428 4.7757 195.875 13.2022 195.875 23.5813V177.125Z" fill="white"/>
<path d="M177.071 21.1833H23.6009C23.3038 21.1833 23.0067 21.2258 22.7095 21.3319C21.7969 21.6715 21.1602 22.5417 21.1602 23.5605V177.041C21.1602 177.359 21.2026 177.678 21.33 177.975C21.6696 178.866 22.5397 179.482 23.5585 179.482H177.049C177.219 179.482 177.389 179.482 177.559 179.418C178.662 179.206 179.469 178.23 179.469 177.083V23.603C179.469 23.2846 179.426 22.9662 179.299 22.6691C178.938 21.7776 178.089 21.1621 177.071 21.1621V21.1833ZM174.715 174.749H25.9143V25.9378H174.715V174.727V174.749Z" fill="white"/>
<path d="M100.304 157.132C122.058 157.132 142.178 144.439 151.559 124.805C151.708 124.487 151.793 124.126 151.793 123.787V106.7C151.793 105.384 150.732 104.323 149.416 104.323H144.789V96.3847H149.416C150.732 96.3847 151.793 95.3235 151.793 94.0075V76.9211C151.793 76.5603 151.708 76.2207 151.559 75.9023C142.178 56.2689 122.058 43.5974 100.325 43.5762C78.5706 43.5762 58.4716 56.2689 49.0694 75.9023C48.9209 76.2207 48.8359 76.5815 48.8359 76.9211V94.0075C48.8359 95.3235 49.8971 96.3847 51.213 96.3847H55.8398V104.323H51.213C49.8971 104.323 48.8359 105.384 48.8359 106.7V123.787C48.8359 124.147 48.9209 124.487 49.0694 124.805C58.4504 144.439 78.5705 157.11 100.304 157.132ZM53.5901 109.078H58.2169C59.5328 109.078 60.594 108.016 60.594 106.7V93.9863C60.594 92.6703 59.5328 91.6091 58.2169 91.6091H53.5901V77.4518C61.931 60.4503 79.1011 49.2645 97.9267 48.3943V53.1912C97.9267 54.5072 98.9879 55.5685 100.304 55.5685C101.62 55.5685 102.681 54.5072 102.681 53.1912V48.3943C121.506 49.2645 138.676 60.4715 147.017 77.4518V91.6091H142.391C141.075 91.6091 140.014 92.6703 140.014 93.9863V106.7C140.014 108.016 141.075 109.078 142.391 109.078H147.017V123.235C138.676 140.236 121.506 151.422 102.681 152.292V147.495C102.681 146.179 101.62 145.118 100.304 145.118C98.9879 145.118 97.9267 146.179 97.9267 147.495V152.292C79.1011 151.422 61.931 140.215 53.5901 123.235V109.078Z" fill="white"/>
<path d="M81.075 106.956C84.7255 106.956 87.6968 103.984 87.6968 100.333C87.6968 96.6825 84.7255 93.7109 81.075 93.7109C77.4245 93.7109 74.4531 96.6825 74.4531 100.333C74.4531 103.984 77.4245 106.956 81.075 106.956Z" fill="white"/>
<path d="M119.575 106.956C123.225 106.956 126.197 103.984 126.197 100.333C126.197 96.6825 123.225 93.7109 119.575 93.7109C115.924 93.7109 112.953 96.6825 112.953 100.333C112.953 103.984 115.924 106.956 119.575 106.956Z" fill="white"/>
</svg>
