<svg width="212" height="212" viewBox="0 0 212 212" fill="none" xmlns="http://www.w3.org/2000/svg">
<path d="M208.864 206.502H2.37706C1.06118 206.502 0 207.563 0 208.879C0 210.195 1.06118 211.256 2.37706 211.256H208.864C210.18 211.256 211.241 210.195 211.241 208.879C211.241 207.563 210.18 206.502 208.864 206.502Z" fill="white"/>
<path d="M169.196 114.531C188.446 114.531 204.109 98.8666 204.109 79.6152C204.109 50.4941 172.061 24.2384 170.682 23.1347C169.812 22.4343 168.559 22.4343 167.689 23.1347C166.331 24.2384 134.262 50.4941 134.262 79.6152C134.262 98.8666 149.925 114.531 169.175 114.531H169.196ZM169.196 28.1226C175.478 33.6412 199.355 56.1825 199.355 79.6152C199.355 96.2347 185.836 109.777 169.196 109.777C152.557 109.777 139.037 96.2559 139.037 79.6152C139.037 56.1825 162.914 33.6412 169.196 28.1226Z" fill="white"/>
<path d="M169.195 97.1479C170.511 97.1479 171.572 96.0866 171.572 94.7707C171.572 93.4547 170.511 92.3934 169.195 92.3934C162.149 92.3934 156.44 86.6626 156.44 79.637C156.44 78.321 155.378 77.2598 154.063 77.2598C152.747 77.2598 151.686 78.321 151.686 79.637C151.686 89.2945 159.538 97.1691 169.216 97.1691L169.195 97.1479Z" fill="white"/>
<path d="M208.864 167.786C210.18 167.786 211.241 166.724 211.241 165.408C211.241 164.093 210.18 163.031 208.864 163.031H2.37706C1.06118 163.031 0 164.093 0 165.408C0 166.724 1.06118 167.786 2.37706 167.786H84.3648V184.766H2.37706C1.06118 184.766 0 185.827 0 187.143C0 188.459 1.06118 189.52 2.37706 189.52H86.7418C88.0577 189.52 89.1189 188.459 89.1189 187.143V167.786H106.098V187.143C106.098 188.459 107.159 189.52 108.475 189.52H208.843C210.158 189.52 211.22 188.459 211.22 187.143C211.22 185.827 210.158 184.766 208.843 184.766H110.852V167.786H208.843H208.864Z" fill="white"/>
<path d="M2.3773 146.052H25.5326C26.8485 146.052 27.9096 144.99 27.9096 143.674V45.1463C30.5414 46.1863 33.4066 46.7382 36.3992 46.7382C39.3917 46.7382 42.257 46.1651 44.8887 45.1463V143.674C44.8887 144.99 45.9499 146.052 47.2658 146.052H208.864C210.18 146.052 211.241 144.99 211.241 143.674C211.241 142.358 210.18 141.297 208.864 141.297H110.874V42.5994C116.986 38.3755 120.997 31.3286 120.997 23.3691C120.997 10.4853 110.513 0 97.6299 0C84.747 0 74.2624 10.4853 74.2624 23.3691C74.2624 31.3286 78.2738 38.3755 84.3863 42.5994V141.297H49.6641V42.5994C55.7765 38.3755 59.7879 31.3286 59.7879 23.3691C59.7879 10.4853 49.3033 0 36.4204 0C23.5376 0 13.053 10.4853 13.053 23.3691C13.053 31.3286 17.0643 38.3755 23.1768 42.5994V141.297H2.39854C1.08267 141.297 0.0214844 142.358 0.0214844 143.674C0.0214844 144.99 1.08267 146.052 2.39854 146.052H2.3773ZM79.0166 23.3691C79.0166 13.1173 87.3575 4.7757 97.6087 4.7757C107.86 4.7757 116.201 13.1173 116.201 23.3691C116.201 33.6209 107.86 41.9625 97.6087 41.9625C87.3575 41.9625 79.0166 33.6209 79.0166 23.3691ZM89.1404 45.1251C91.7721 46.1651 94.6373 46.717 97.6299 46.717C100.622 46.717 103.488 46.1439 106.119 45.1251V141.276H89.1404V45.1251ZM17.8071 23.3691C17.8071 13.1173 26.1481 4.7757 36.3992 4.7757C46.6503 4.7757 54.9913 13.1173 54.9913 23.3691C54.9913 33.6209 46.6503 41.9625 36.3992 41.9625C26.1481 41.9625 17.8071 33.6209 17.8071 23.3691Z" fill="white"/>
</svg>
