<svg width="214" height="222" viewBox="0 0 214 222" fill="none" xmlns="http://www.w3.org/2000/svg">
<path d="M186.639 49.5513L153.89 25.5454C151.322 23.6776 148.181 22.9135 145.04 23.4017C141.878 23.8898 139.119 25.5667 137.251 28.1138L133.643 33.038C131.775 35.5851 131.011 38.7476 131.499 41.889C131.987 45.0515 133.664 47.8108 136.211 49.6786L168.959 73.6845C171.018 75.1914 173.459 75.9768 175.963 75.9768C176.579 75.9768 177.194 75.9344 177.81 75.8282C180.972 75.34 183.731 73.6633 185.599 71.1163L189.207 66.192C191.075 63.6237 191.839 60.4823 191.351 57.3409C190.862 54.1784 189.186 51.4191 186.639 49.5513ZM185.365 63.369L181.757 68.2933C180.632 69.8215 178.977 70.8191 177.088 71.1163C175.199 71.3922 173.31 70.9464 171.782 69.8214L139.034 45.8156C137.506 44.6907 136.508 43.0352 136.211 41.1461C135.914 39.2571 136.381 37.368 137.506 35.8398L141.114 30.9155C142.239 29.3873 143.894 28.3897 145.783 28.0925C146.165 28.0288 146.526 28.0076 146.908 28.0076C148.415 28.0076 149.879 28.4745 151.11 29.3872L183.859 53.393C185.387 54.518 186.384 56.1736 186.681 58.0626C186.978 59.9517 186.512 61.8408 185.387 63.369H185.365Z" fill="white"/>
<path d="M185.344 93.5287L211.11 58.3583C212.978 55.7901 213.742 52.6486 213.254 49.5073C212.766 46.3447 211.089 43.5854 208.542 41.7176L154.761 2.30217C149.455 -1.58207 141.984 -0.435853 138.1 4.87048L0.46355 192.693C-0.194389 193.585 -0.151946 194.816 0.590888 195.665L22.2392 220.541C22.7061 221.072 23.3641 221.369 24.0432 221.369C24.5526 221.369 25.0832 221.199 25.5289 220.859L84.7646 173.866H201.029C202.345 173.866 203.406 172.805 203.406 171.489V145.021C203.406 143.705 202.345 142.644 201.029 142.644H124.135L184.156 95.0144C184.495 94.7384 185.217 93.7196 185.344 93.5498V93.5287ZM198.652 169.091H66.0664V147.399H198.652V169.091ZM116.473 142.623H63.6894C62.3735 142.623 61.3123 143.684 61.3123 145V171.468C61.3123 172.784 62.3735 173.845 63.6894 173.845H77.1028L24.3404 215.702L5.42992 193.967L104.757 58.4219L135.065 80.6237C152.214 93.0193 166.264 95.545 174.881 95.545C175.178 95.545 175.475 95.545 175.772 95.545L116.452 142.602L116.473 142.623ZM137.888 76.7819L107.601 54.5802L141.984 7.67224C144.319 4.48844 148.797 3.80927 151.98 6.12283L205.762 45.5381C207.29 46.6631 208.287 48.3187 208.584 50.2077C208.882 52.0968 208.415 53.9858 207.29 55.5141L182.012 90.0265C178.51 90.8967 161.468 93.8046 137.909 76.7819H137.888Z" fill="white"/>
<path d="M98.0086 194.879C100.787 194.879 103.039 192.627 103.039 189.849C103.039 187.071 100.787 184.818 98.0086 184.818C95.2305 184.818 92.9785 187.071 92.9785 189.849C92.9785 192.627 95.2305 194.879 98.0086 194.879Z" fill="white"/>
<path d="M125.747 193.502C122.967 193.502 120.717 195.752 120.717 198.532C120.717 201.313 122.967 203.563 125.747 203.563C128.527 203.563 130.777 201.313 130.777 198.532C130.777 195.752 128.527 193.502 125.747 193.502Z" fill="white"/>
<path d="M167.41 129.505C167.41 132.286 169.66 134.536 172.44 134.536C175.221 134.536 177.47 132.286 177.47 129.505C177.47 126.724 175.221 124.475 172.44 124.475C169.66 124.475 167.41 126.724 167.41 129.505Z" fill="white"/>
<path d="M79.2039 207.062C76.4235 207.062 74.1738 209.312 74.1738 212.093C74.1738 214.873 76.4235 217.123 79.2039 217.123C81.9842 217.123 84.2339 214.873 84.2339 212.093C84.2339 209.312 81.9842 207.062 79.2039 207.062Z" fill="white"/>
</svg>
