<svg width="169" height="218" viewBox="0 0 169 218" fill="none" xmlns="http://www.w3.org/2000/svg">
<path d="M166.501 0H2.37706C1.06118 0 0 1.06126 0 2.37723V215.225C0 216.541 1.06118 217.602 2.37706 217.602H166.501C167.817 217.602 168.878 216.541 168.878 215.225V2.37723C168.878 1.06126 167.817 0 166.501 0ZM25.9355 212.848V25.9373H142.942V212.848H25.9355ZM164.124 212.848H147.718V23.5601C147.718 22.2441 146.657 21.1828 145.341 21.1828H23.5584C22.2425 21.1828 21.1813 22.2441 21.1813 23.5601V212.848H4.77536V4.75445H164.145V212.848H164.124Z" fill="white"/>
<path d="M124.138 167.424H44.7189C43.403 167.424 42.3418 168.485 42.3418 169.801V194.04C42.3418 195.356 43.403 196.418 44.7189 196.418H124.138C125.454 196.418 126.515 195.356 126.515 194.04V169.801C126.515 168.485 125.454 167.424 124.138 167.424ZM121.761 191.663H47.1172V172.178H121.761V191.663Z" fill="white"/>
<path d="M132.395 106.422H115.883C114.567 106.422 113.506 107.483 113.506 108.799C113.506 110.115 114.567 111.176 115.883 111.176H132.395C133.711 111.176 134.772 110.115 134.772 108.799C134.772 107.483 133.711 106.422 132.395 106.422Z" fill="white"/>
<path d="M124.138 123.361C122.823 123.361 121.761 124.422 121.761 125.738V146.242H47.1172V47.1197H121.761V91.8627C121.761 93.1787 122.823 94.2399 124.138 94.2399C125.454 94.2399 126.515 93.1787 126.515 91.8627V44.7425C126.515 43.4265 125.454 42.3652 124.138 42.3652H44.7189C43.403 42.3652 42.3418 43.4265 42.3418 44.7425V148.64C42.3418 149.956 43.403 151.018 44.7189 151.018H124.138C125.454 151.018 126.515 149.956 126.515 148.64V125.76C126.515 124.444 125.454 123.382 124.138 123.382V123.361Z" fill="white"/>
</svg>
