<svg width="197" height="217" viewBox="0 0 197 217" fill="none" xmlns="http://www.w3.org/2000/svg">
<path d="M184.053 189.5H180.87V2.37723C180.87 1.06126 179.808 0 178.492 0H17.9765C16.6607 0 15.5995 1.06126 15.5995 2.37723V189.5H12.4159C5.56059 189.5 0 195.061 0 201.916V214.185C0 215.501 1.06118 216.562 2.37706 216.562H194.092C195.408 216.562 196.469 215.501 196.469 214.185V201.916C196.469 195.061 190.908 189.5 184.053 189.5ZM20.3536 4.75445H176.094V189.5H20.3536V4.75445ZM191.715 211.786H4.75412V201.916C4.75412 197.693 8.19233 194.275 12.3947 194.275H184.053C188.277 194.275 191.694 197.714 191.694 201.916V211.786H191.715Z" fill="white"/>
<path d="M160.665 17.8281H35.8263C34.5104 17.8281 33.4492 18.8894 33.4492 20.2054V174.047C33.4492 175.363 34.5104 176.424 35.8263 176.424H160.665C161.981 176.424 163.042 175.363 163.042 174.047V20.2054C163.042 18.8894 161.981 17.8281 160.665 17.8281ZM158.267 171.669H38.1821V22.6038H158.267V171.669Z" fill="white"/>
<path d="M61.8471 98.7388C62.2292 98.7388 62.6324 98.6539 62.9932 98.4417L135.77 58.4957C136.916 57.859 137.34 56.4156 136.704 55.2694C136.067 54.1233 134.624 53.6987 133.478 54.3355L60.701 94.2816C59.5549 94.9183 59.1304 96.3616 59.7671 97.5077C60.1916 98.2931 61.0193 98.7388 61.8683 98.7388H61.8471Z" fill="white"/>
<path d="M61.8471 140.237C62.2292 140.237 62.6324 140.152 62.9932 139.94L135.77 99.9938C136.916 99.357 137.34 97.9136 136.704 96.7675C136.067 95.6213 134.624 95.1968 133.478 95.8336L60.701 135.78C59.5549 136.416 59.1304 137.86 59.7671 139.006C60.1916 139.791 61.0193 140.237 61.8683 140.237H61.8471Z" fill="white"/>
</svg>
