<svg width="206" height="207" viewBox="0 0 206 207" fill="none" xmlns="http://www.w3.org/2000/svg">
<path d="M58.408 0.722626C57.8987 0.213218 57.2195 -0.0202114 56.4978 0.0434646C55.7975 0.107141 55.1609 0.489155 54.7576 1.06224L28.7372 38.6948L21.6272 45.8053C16.576 50.8569 15.8967 57.182 19.717 63.592C22.7096 68.6012 27.9306 75.3721 33.47 82.5463C45.8648 98.5926 64.6054 122.853 57.3681 129.751C47.308 139.345 36.1017 146.477 26.1901 152.76C18.21 157.832 11.3336 162.205 6.72805 166.811C2.39839 171.141 0 176.914 0 183.048C0 189.182 2.39839 194.956 6.72805 199.286C11.0577 203.616 16.8306 206.014 22.9643 206.014C29.098 206.014 34.8707 203.616 39.2004 199.286C43.8059 194.68 48.1993 187.803 53.2505 179.822C59.5328 169.91 66.6642 158.703 76.2574 148.642C83.1551 141.404 107.414 160.146 123.459 172.542C130.633 178.081 137.403 183.303 142.412 186.296C148.822 190.116 155.125 189.437 160.197 184.385L167.308 177.275L204.938 151.274C205.511 150.871 205.893 150.234 205.956 149.533C206.02 148.833 205.765 148.133 205.277 147.623L58.408 0.743872V0.722626ZM156.844 181.011C153.385 184.47 149.352 184.874 144.874 182.199C140.099 179.355 133.456 174.218 126.409 168.764C105.928 152.929 82.7094 135.015 72.8404 145.352C62.9288 155.752 55.6703 167.172 49.2607 177.254C44.3368 185.001 40.0919 191.666 35.8683 195.889C32.4301 199.328 27.8668 201.217 23.0066 201.217C18.1463 201.217 13.5833 199.328 10.1451 195.889C6.7068 192.451 4.81785 187.888 4.81785 183.027C4.81785 178.166 6.7068 173.603 10.1451 170.164C14.3686 165.919 21.0542 161.674 28.7796 156.771C38.861 150.361 50.3004 143.102 60.6789 133.19C71.0149 123.32 53.0809 100.1 37.2692 79.6172C31.8147 72.5704 26.6783 65.9056 23.8343 61.1511C21.1601 56.6726 21.5635 52.6398 25.023 49.1801L30.5836 43.619L162.405 175.449L156.844 181.011ZM166.077 172.351L33.6822 39.947L57.0709 6.11388L199.907 148.96L166.077 172.351Z" fill="white"/>
<path d="M141.224 64.8012C141.691 65.2681 142.306 65.5016 142.9 65.5016C143.495 65.5016 144.11 65.2681 144.577 64.8012L205.277 4.09674C206.211 3.16282 206.211 1.65583 205.277 0.72192C204.343 -0.211994 202.836 -0.211994 201.902 0.72192L141.202 61.4264C140.268 62.3603 140.268 63.8673 141.202 64.8012H141.224Z" fill="white"/>
<path d="M107.414 30.0126C108.029 30.0126 108.623 29.7791 109.09 29.3121L134.304 4.07525C135.238 3.14134 135.238 1.63435 134.304 0.700436C133.37 -0.233479 131.864 -0.233479 130.93 0.700436L105.695 25.9373C104.761 26.8712 104.761 28.3782 105.695 29.3121C106.161 29.7791 106.777 30.0126 107.371 30.0126H107.414Z" fill="white"/>
<path d="M201.924 71.6985L176.689 96.9354C175.755 97.8693 175.755 99.3763 176.689 100.31C177.156 100.777 177.771 101.011 178.365 101.011C178.96 101.011 179.575 100.777 180.042 100.31L205.277 75.0733C206.211 74.1394 206.211 72.6324 205.277 71.6985C204.343 70.7646 202.836 70.7646 201.903 71.6985H201.924Z" fill="white"/>
<path d="M123.481 47.0568C123.948 47.5238 124.564 47.7572 125.158 47.7572C125.752 47.7572 126.368 47.5238 126.835 47.0568L169.792 4.09674C170.726 3.16282 170.726 1.65583 169.792 0.72192C168.858 -0.211994 167.351 -0.211994 166.417 0.72192L123.46 43.682C122.526 44.6159 122.526 46.1229 123.46 47.0568H123.481Z" fill="white"/>
<path d="M201.923 36.2082L158.966 79.1683C158.032 80.1023 158.032 81.6093 158.966 82.5432C159.433 83.0101 160.049 83.2436 160.643 83.2436C161.237 83.2436 161.852 83.0101 162.319 82.5432L205.276 39.5831C206.21 38.6492 206.21 37.1422 205.276 36.2082C204.342 35.2743 202.836 35.2743 201.902 36.2082H201.923Z" fill="white"/>
<path d="M19.441 179.482C17.4884 181.435 17.4884 184.64 19.441 186.593C20.4173 187.569 21.7118 188.057 23.0065 188.057C24.3011 188.057 25.5747 187.569 26.5722 186.593C28.5248 184.64 28.5248 181.435 26.5722 179.482C24.6196 177.529 21.4148 177.529 19.4623 179.482H19.441Z" fill="white"/>
</svg>
