<svg width="186" height="70" viewBox="0 0 186 70" fill="none" xmlns="http://www.w3.org/2000/svg">
<path d="M49.1424 34.8723L29.8501 14.7063C29.5856 14.4298 29.438 14.062 29.438 13.6795L29.438 4.11323C29.438 2.77396 31.0709 2.11866 31.9968 3.08639L51.2891 23.2524C51.5536 23.5288 51.7012 23.8966 51.7012 24.2792L51.7012 33.8454C51.7012 35.1847 50.0682 35.84 49.1424 34.8723Z" fill="white" stroke="#252525" stroke-width="0.990269"/>
<path d="M39.3688 35.5664L50.5329 35.5664C50.9702 35.5664 51.1928 35.0411 50.8887 34.7269L31.242 14.4264C31.1487 14.33 31.0203 14.2756 30.8862 14.2756L19.722 14.2756C19.2848 14.2756 19.0622 14.8009 19.3663 15.1151L39.013 35.4156C39.1063 35.512 39.2347 35.5664 39.3688 35.5664Z" fill="white" stroke="#252525" stroke-width="0.990269"/>
<rect x="31.9131" y="15.2656" width="12.8624" height="12.8735" rx="1.4854" transform="rotate(-180 31.9131 15.2656)" fill="white" stroke="#252525" stroke-width="0.990269"/>
<path d="M34.686 22.2801L14.5337 41.5903C14.2572 41.8553 13.889 42.0032 13.5061 42.0032L3.94736 42.0032C2.60867 42.0032 1.95309 40.3715 2.91967 39.4453L23.0719 20.1351C23.3485 19.8701 23.7167 19.7222 24.0996 19.7222L33.6583 19.7222C34.997 19.7222 35.6526 21.3539 34.686 22.2801Z" fill="white" stroke="#252525" stroke-width="0.990269"/>
<path d="M35.377 32.0649L35.377 20.8917C35.377 20.4543 34.8513 20.2317 34.5372 20.5362L14.2538 40.1979C14.1576 40.2912 14.1033 40.4195 14.1033 40.5535L14.1033 51.7266C14.1033 52.1641 14.629 52.3866 14.943 52.0822L35.2264 32.4204C35.3226 32.3271 35.377 32.1989 35.377 32.0649Z" fill="white" stroke="#252525" stroke-width="0.990269"/>
<rect x="15.0908" y="39.5278" width="12.8735" height="12.8624" rx="1.4854" transform="rotate(90 15.0908 39.5278)" fill="white" stroke="#252525" stroke-width="0.990269"/>
<path d="M23.0939 34.7752L42.3862 54.9412C42.6507 55.2176 42.7983 55.5854 42.7983 55.968L42.7983 65.5342C42.7983 66.8735 41.1654 67.5288 40.2396 66.5611L20.9472 46.3951C20.6828 46.1186 20.5352 45.7508 20.5352 45.3683L20.5352 35.802C20.5352 34.4628 22.1681 33.8075 23.0939 34.7752Z" fill="white" stroke="#252525" stroke-width="0.990269"/>
<path d="M32.8675 34.0815L21.7034 34.0815C21.2662 34.0815 21.0435 34.6068 21.3476 34.921L40.9943 55.2215C41.0876 55.3179 41.216 55.3723 41.3501 55.3723L52.5143 55.3723C52.9515 55.3723 53.1741 54.847 52.8701 54.5329L33.2233 34.2323C33.1301 34.136 33.0017 34.0815 32.8675 34.0815Z" fill="white" stroke="#252525" stroke-width="0.990269"/>
<rect x="40.3233" y="54.3819" width="12.8624" height="12.8735" rx="1.4854" fill="white" stroke="#252525" stroke-width="0.990269"/>
<path d="M36.562 46.8723L56.7143 27.562C56.9908 27.297 57.359 27.1491 57.742 27.1491L67.3007 27.1491C68.6394 27.1491 69.295 28.7808 68.3284 29.707L48.1761 49.0173C47.8996 49.2823 47.5314 49.4302 47.1484 49.4302L37.5897 49.4302C36.251 49.4302 35.5955 47.7985 36.562 46.8723Z" fill="white" stroke="#252525" stroke-width="0.990269"/>
<path d="M35.8711 37.0875L35.8711 48.2606C35.8711 48.698 36.3968 48.9206 36.7109 48.6162L56.9943 28.9544C57.0905 28.8611 57.1448 28.7329 57.1448 28.5989L57.1448 17.4257C57.1448 16.9883 56.6191 16.7657 56.305 17.0702L36.0216 36.7319C35.9254 36.8252 35.8711 36.9535 35.8711 37.0875Z" fill="white" stroke="#252525" stroke-width="0.990269"/>
<rect x="56.1572" y="29.6255" width="12.8735" height="12.8624" rx="1.4854" transform="rotate(-90 56.1572 29.6255)" fill="white" stroke="#252525" stroke-width="0.990269"/>
<path d="M77.6078 51.6577V17.2967H109.344V24.7416H85.1004V30.7548H104.619V38.1996H85.1004V51.6577H77.6078ZM138.678 51.6577L128.703 39.7745H138.391L146.313 49.1284V51.6577H138.678ZM112 51.6577V17.3444H139.25C140.555 17.3444 141.732 17.6626 142.782 18.2989C143.864 18.9352 144.723 19.7942 145.359 20.876C146.027 21.9577 146.361 23.1349 146.361 24.4075V33.2841C146.361 34.5567 146.027 35.7339 145.359 36.8157C144.723 37.8974 143.864 38.7564 142.782 39.3927C141.732 40.029 140.555 40.3472 139.25 40.3472L119.397 40.3949V51.6577H112ZM119.397 32.9023H138.869V24.7416H119.397V32.9023ZM163.122 51.6577V24.7416H149.663V17.2967H184.024V24.7416H170.566V51.6577H163.122Z" fill="white"/>
<path d="M77.5863 66.5874V61.6995C77.5863 61.4074 77.6612 61.1377 77.811 60.8905C77.9608 60.6433 78.1593 60.4448 78.4065 60.2949C78.6537 60.1451 78.9271 60.0702 79.2268 60.0702H82.8225V61.7894H79.3054V66.5874H77.5863ZM88.3748 66.5874C88.0827 66.5874 87.813 66.5125 87.5658 66.3627C87.3186 66.2129 87.1201 66.0143 86.9702 65.7671C86.8204 65.5199 86.7455 65.2503 86.7455 64.9581V61.6995C86.7455 61.4074 86.8204 61.1377 86.9702 60.8905C87.1201 60.6433 87.3186 60.4448 87.5658 60.2949C87.813 60.1451 88.0827 60.0702 88.3748 60.0702H91.7233C92.0229 60.0702 92.2964 60.1451 92.5436 60.2949C92.7908 60.4448 92.9855 60.6433 93.1279 60.8905C93.2777 61.1377 93.3526 61.4074 93.3526 61.6995V64.194H88.4647V64.8682H93.3526V66.5874H88.3748ZM88.4647 62.6883H91.6334V61.7894H88.4647V62.6883ZM97.7054 66.5874V60.0702H102.683C102.983 60.0702 103.256 60.1451 103.503 60.2949C103.751 60.4448 103.945 60.6433 104.088 60.8905C104.238 61.1377 104.313 61.4074 104.313 61.6995V66.5874H102.593V61.7894H99.4246V66.5874H97.7054ZM109.997 66.5874C109.705 66.5874 109.435 66.5125 109.188 66.3627C108.941 66.2129 108.742 66.0143 108.592 65.7671C108.442 65.5199 108.367 65.2503 108.367 64.9581V61.6995C108.367 61.4074 108.442 61.1377 108.592 60.8905C108.742 60.6433 108.941 60.4448 109.188 60.2949C109.435 60.1451 109.705 60.0702 109.997 60.0702H113.345C113.645 60.0702 113.918 60.1451 114.166 60.2949C114.413 60.4448 114.607 60.6433 114.75 60.8905C114.9 61.1377 114.975 61.4074 114.975 61.6995V64.9581C114.975 65.2503 114.9 65.5199 114.75 65.7671C114.607 66.0143 114.413 66.2129 114.166 66.3627C113.918 66.5125 113.645 66.5874 113.345 66.5874H109.997ZM110.087 64.8682H113.255V61.7894H110.087V64.8682ZM122.245 66.5874L118.66 60.0702H120.638L122.986 64.3963L125.335 60.0702H127.312L123.717 66.5874H122.245ZM132.299 66.5874C132 66.5874 131.726 66.5125 131.479 66.3627C131.232 66.2129 131.033 66.0143 130.884 65.7671C130.741 65.5199 130.67 65.2503 130.67 64.9581V62.4636H135.558V61.7894H130.67V60.0702H135.648C135.947 60.0702 136.221 60.1451 136.468 60.2949C136.715 60.4448 136.91 60.6433 137.052 60.8905C137.202 61.1377 137.277 61.4074 137.277 61.6995V66.5874H132.299ZM132.389 64.8682H135.558V63.9693H132.389V64.8682ZM143.27 66.5874C142.97 66.5874 142.697 66.5125 142.45 66.3627C142.202 66.2129 142.004 66.0143 141.854 65.7671C141.704 65.5199 141.629 65.2503 141.629 64.9581V58.1375H143.349V60.0702H145.764V61.7894H143.349V64.8682H145.764V66.5874H143.27ZM149.834 66.5874V60.0702H151.553V66.5874H149.834ZM149.834 59.6657V57.9353H151.553V59.6657H149.834ZM157.166 66.5874C156.874 66.5874 156.604 66.5125 156.357 66.3627C156.11 66.2129 155.911 66.0143 155.761 65.7671C155.612 65.5199 155.537 65.2503 155.537 64.9581V61.6995C155.537 61.4074 155.612 61.1377 155.761 60.8905C155.911 60.6433 156.11 60.4448 156.357 60.2949C156.604 60.1451 156.874 60.0702 157.166 60.0702H160.515C160.814 60.0702 161.088 60.1451 161.335 60.2949C161.582 60.4448 161.777 60.6433 161.919 60.8905C162.069 61.1377 162.144 61.4074 162.144 61.6995V64.9581C162.144 65.2503 162.069 65.5199 161.919 65.7671C161.777 66.0143 161.582 66.2129 161.335 66.3627C161.088 66.5125 160.814 66.5874 160.515 66.5874H157.166ZM157.256 64.8682H160.425V61.7894H157.256V64.8682ZM166.178 66.5874V60.0702H171.156C171.456 60.0702 171.729 60.1451 171.976 60.2949C172.224 60.4448 172.418 60.6433 172.561 60.8905C172.711 61.1377 172.786 61.4074 172.786 61.6995V66.5874H171.066V61.7894H167.898V66.5874H166.178ZM178.491 66.5874C178.199 66.5874 177.929 66.5125 177.682 66.3627C177.435 66.2129 177.236 66.0143 177.086 65.7671C176.937 65.5199 176.862 65.2503 176.862 64.9581V64.6322H178.581V64.8682H181.75V64.194H178.491C178.199 64.194 177.929 64.1191 177.682 63.9693C177.435 63.8195 177.236 63.621 177.086 63.3738C176.937 63.1266 176.862 62.8569 176.862 62.5647V61.6995C176.862 61.4074 176.937 61.1377 177.086 60.8905C177.236 60.6433 177.435 60.4448 177.682 60.2949C177.929 60.1451 178.199 60.0702 178.491 60.0702H181.839C182.139 60.0702 182.412 60.1451 182.66 60.2949C182.907 60.4448 183.105 60.6433 183.255 60.8905C183.405 61.1377 183.48 61.4074 183.48 61.6995V62.0254H181.75V61.7894H178.581V62.4636H181.839C182.139 62.4636 182.412 62.5385 182.66 62.6883C182.907 62.8381 183.105 63.0367 183.255 63.2839C183.405 63.5311 183.48 63.8007 183.48 64.0929V64.9581C183.48 65.2503 183.405 65.5199 183.255 65.7671C183.105 66.0143 182.907 66.2129 182.66 66.3627C182.412 66.5125 182.139 66.5874 181.839 66.5874H178.491Z" fill="white"/>
</svg>
