<svg width="196" height="196" viewBox="0 0 196 196" fill="none" xmlns="http://www.w3.org/2000/svg">
<path d="M195.365 2.37723C195.365 1.74047 195.111 1.14614 194.665 0.700407C194.219 0.254675 193.604 0 192.988 0H2.37706C1.06118 0 0 1.06126 0 2.37723V193.002C0 194.318 1.06118 195.379 2.37706 195.379H192.988C194.304 195.379 195.365 194.318 195.365 193.002C195.365 193.002 195.365 2.75928 195.365 2.37723ZM4.77536 4.75445H190.611C190.611 20.2914 190.548 106.912 190.611 129.835H190.505C169.769 129.835 163.997 110.563 163.763 109.714C163.763 109.65 163.721 109.586 163.699 109.523C160.24 100.311 151.602 93.8796 142.688 93.8796C132.14 93.8796 125.369 101.924 122.568 109.459C118.705 119.753 108.708 126.673 97.7145 126.673C87.8242 126.673 78.8041 121.218 74.1985 112.452C74.0075 112.07 73.6255 111.115 73.1798 109.99C69.4444 100.629 58.0684 72.1024 29.7134 62.4449C12.4796 56.5655 4.81779 49.0942 4.81779 38.1843V4.75445H4.77536ZM161.004 115.572H124.923C125.73 114.171 126.409 112.685 127.003 111.157C129.253 105.129 134.559 98.6765 142.667 98.6765C150.774 98.6765 156.908 105.129 159.179 111.178C159.327 111.645 159.879 113.322 161.004 115.593V115.572ZM35.8046 70.2983C45.4827 75.4348 52.5927 83.0547 57.75 90.5472H4.77536V70.2983H35.8046ZM60.8063 95.3017C64.86 102.115 67.3432 108.313 68.7228 111.751C69.2746 113.152 69.6354 114.065 69.9538 114.659C70.1235 114.956 70.2933 115.254 70.4631 115.551H4.77536V95.3017H60.8063ZM24.1739 65.5226H4.77536V52.5751C9.5295 58.8578 17.1488 62.8057 24.1739 65.5226ZM190.611 190.603H4.77536V170.354H190.611V190.603ZM190.611 165.6H4.77536V145.351H190.611V165.6ZM4.77536 140.575V120.326H73.774C79.653 127.309 88.3336 131.448 97.6933 131.448C107.053 131.448 115.712 127.225 121.57 120.326H163.784C168.263 126.927 176.497 134.611 190.484 134.611C190.526 134.611 190.569 134.611 190.611 134.611V140.575H4.77536Z" fill="white"/>
<path d="M32.9181 30.0767H47.1593C48.4752 30.0767 49.5364 29.0155 49.5364 27.6995C49.5364 26.3835 48.4752 25.3223 47.1593 25.3223H32.9181C31.6022 25.3223 30.541 26.3835 30.541 27.6995C30.541 29.0155 31.6022 30.0767 32.9181 30.0767Z" fill="white"/>
<path d="M90.5616 30.0767H104.803C106.119 30.0767 107.18 29.0155 107.18 27.6995C107.18 26.3835 106.119 25.3223 104.803 25.3223H90.5616C89.2458 25.3223 88.1846 26.3835 88.1846 27.6995C88.1846 29.0155 89.2458 30.0767 90.5616 30.0767Z" fill="white"/>
<path d="M148.206 30.0767H162.447C163.763 30.0767 164.824 29.0155 164.824 27.6995C164.824 26.3835 163.763 25.3223 162.447 25.3223H148.206C146.89 25.3223 145.829 26.3835 145.829 27.6995C145.829 29.0155 146.89 30.0767 148.206 30.0767Z" fill="white"/>
<path d="M90.5616 82.7994H104.803C106.119 82.7994 107.18 81.7381 107.18 80.4221C107.18 79.1062 106.119 78.0449 104.803 78.0449H90.5616C89.2458 78.0449 88.1846 79.1062 88.1846 80.4221C88.1846 81.7381 89.2458 82.7994 90.5616 82.7994Z" fill="white"/>
<path d="M148.206 82.7994H162.447C163.763 82.7994 164.824 81.7381 164.824 80.4221C164.824 79.1062 163.763 78.0449 162.447 78.0449H148.206C146.89 78.0449 145.829 79.1062 145.829 80.4221C145.829 81.7381 146.89 82.7994 148.206 82.7994Z" fill="white"/>
<path d="M61.7403 55.2291H75.9815C77.2974 55.2291 78.3586 54.1678 78.3586 52.8518C78.3586 51.5359 77.2974 50.4746 75.9815 50.4746H61.7403C60.4245 50.4746 59.3633 51.5359 59.3633 52.8518C59.3633 54.1678 60.4245 55.2291 61.7403 55.2291Z" fill="white"/>
<path d="M119.384 55.2291H133.625C134.941 55.2291 136.002 54.1678 136.002 52.8518C136.002 51.5359 134.941 50.4746 133.625 50.4746H119.384C118.068 50.4746 117.007 51.5359 117.007 52.8518C117.007 54.1678 118.068 55.2291 119.384 55.2291Z" fill="white"/>
</svg>
