<svg width="196" height="196" viewBox="0 0 196 196" fill="none" xmlns="http://www.w3.org/2000/svg">
<path d="M192.988 0H2.37706C1.06118 0 0 1.06126 0 2.37723V193.002C0 194.318 1.06118 195.379 2.37706 195.379H192.988C194.304 195.379 195.365 194.318 195.365 193.002V2.37723C195.365 1.06126 194.304 0 192.988 0ZM190.611 4.75445V190.603H178.429V4.75445H190.611ZM173.675 127.076H117.028V68.3031H173.675V127.076ZM173.675 63.5274H117.028V4.75445H173.675V63.5274ZM117.028 131.83H173.675V190.603H117.028V131.83ZM112.253 190.603H100.07V4.75445H112.253V190.603ZM4.77536 4.75445H95.3162V190.603H4.77536V4.75445Z" fill="white"/>
<path d="M131.312 48.5628C131.779 49.0298 132.395 49.2632 132.989 49.2632C133.583 49.2632 134.199 49.0298 134.666 48.5628L159.37 23.8565C160.304 22.9226 160.304 21.4156 159.37 20.4817C158.437 19.5478 156.93 19.5478 155.996 20.4817L131.291 45.188C130.357 46.1219 130.357 47.6289 131.291 48.5628H131.312Z" fill="white"/>
<path d="M131.312 111.731C131.779 112.198 132.395 112.431 132.989 112.431C133.583 112.431 134.199 112.198 134.666 111.731L159.37 87.0245C160.304 86.0906 160.304 84.5836 159.37 83.6497C158.437 82.7157 156.93 82.7157 155.996 83.6497L131.291 108.356C130.357 109.29 130.357 110.797 131.291 111.731H131.312Z" fill="white"/>
<path d="M159.391 146.816C158.457 145.882 156.95 145.882 156.016 146.816L131.312 171.522C130.378 172.456 130.378 173.963 131.312 174.897C131.779 175.364 132.394 175.597 132.988 175.597C133.583 175.597 134.198 175.364 134.665 174.897L159.37 150.191C160.303 149.257 160.303 147.75 159.37 146.816H159.391Z" fill="white"/>
<path d="M19.3348 14.2832C16.5544 14.2832 14.3047 16.5331 14.3047 19.3136C14.3047 22.0941 16.5544 24.344 19.3348 24.344C22.1151 24.344 24.3648 22.0941 24.3648 19.3136C24.3648 16.5331 22.1151 14.2832 19.3348 14.2832Z" fill="white"/>
<path d="M80.7566 24.344C83.5346 24.344 85.7867 22.0918 85.7867 19.3136C85.7867 16.5354 83.5346 14.2832 80.7566 14.2832C77.9786 14.2832 75.7266 16.5354 75.7266 19.3136C75.7266 22.0918 77.9786 24.344 80.7566 24.344Z" fill="white"/>
<path d="M80.7566 181.073C83.5346 181.073 85.7867 178.82 85.7867 176.042C85.7867 173.264 83.5346 171.012 80.7566 171.012C77.9786 171.012 75.7266 173.264 75.7266 176.042C75.7266 178.82 77.9786 181.073 80.7566 181.073Z" fill="white"/>
<path d="M80.7566 102.709C83.5346 102.709 85.7867 100.457 85.7867 97.6788C85.7867 94.9006 83.5346 92.6484 80.7566 92.6484C77.9786 92.6484 75.7266 94.9006 75.7266 97.6788C75.7266 100.457 77.9786 102.709 80.7566 102.709Z" fill="white"/>
<path d="M19.3348 92.6484C16.5544 92.6484 14.3047 94.8983 14.3047 97.6788C14.3047 100.459 16.5544 102.709 19.3348 102.709C22.1151 102.709 24.3648 100.459 24.3648 97.6788C24.3648 94.8983 22.1151 92.6484 19.3348 92.6484Z" fill="white"/>
<path d="M19.3348 171.012C16.5544 171.012 14.3047 173.262 14.3047 176.042C14.3047 178.823 16.5544 181.073 19.3348 181.073C22.1151 181.073 24.3648 178.823 24.3648 176.042C24.3648 173.262 22.1151 171.012 19.3348 171.012Z" fill="white"/>
</svg>
