<svg width="189" height="190" viewBox="0 0 189 190" fill="none" xmlns="http://www.w3.org/2000/svg">
<path d="M187.152 0H1.84646C0.827719 0 0 0.827777 0 1.84659V187.165C0 188.184 0.827719 189.011 1.84646 189.011H187.152C188.171 189.011 188.998 188.184 188.998 187.165V1.84659C188.998 0.827777 188.171 0 187.152 0ZM147.909 160.952L172.274 185.318H123.544L147.909 160.952ZM150.541 102.603L175.776 77.3663L185.305 86.8965V137.37L150.541 102.603ZM108.411 28.0599L84.0465 3.69319H132.776L108.411 28.0599ZM105.801 86.387L80.5657 111.624L15.833 46.8867L41.0682 21.6498L105.801 86.387ZM108.411 139.493L83.1762 114.256L147.909 49.5187L173.144 74.7556L108.411 139.493ZM3.69293 59.0489L13.2225 49.5187L38.4576 74.7556L3.69293 109.523V59.0489ZM3.69293 165.218V114.744L13.2225 105.214L38.4576 130.451L3.69293 165.218ZM15.833 102.603L41.0682 77.3663L105.801 142.104L80.5657 167.34L15.833 102.603ZM150.541 46.8867L175.776 21.6498L185.305 31.18V81.6538L150.541 46.8867ZM185.284 3.69319V25.9373L163.042 3.69319H185.284ZM138.019 3.69319H157.799L173.144 19.0391L108.411 83.7764L83.1762 58.5394L138.019 3.69319ZM78.8041 3.69319L105.78 30.6706L80.5445 55.9075L28.3339 3.69319H78.8041ZM38.4363 19.0391L3.67181 53.8062V3.71443H23.0915L38.4363 19.0604V19.0391ZM3.69293 185.318V170.482L13.2225 160.952L37.5875 185.318H3.69293ZM42.8086 185.318L15.833 158.341L41.0682 133.104L93.2788 185.318H42.8086ZM83.1762 169.972L147.909 105.235L173.144 130.472L118.302 185.318H98.5212L83.1762 169.972ZM185.284 185.318H177.516L150.541 158.341L175.776 133.104L185.305 142.634V185.34L185.284 185.318Z" fill="white"/>
</svg>
