<svg width="199" height="196" viewBox="0 0 199 196" fill="none" xmlns="http://www.w3.org/2000/svg">
<path d="M196.279 0H5.6671C4.35122 0 3.29004 1.06126 3.29004 2.37723V39.8611C3.29004 41.1771 4.35122 42.2383 5.6671 42.2383C6.98298 42.2383 8.04416 41.1771 8.04416 39.8611V4.75445H63.4386L33.9799 34.2152C33.046 35.1491 33.046 36.6561 33.9799 37.59C34.4468 38.0569 35.0621 38.2904 35.6564 38.2904C36.2507 38.2904 36.8662 38.0569 37.3332 37.59L70.1451 4.75445H126.94L97.4814 34.2152C96.5476 35.1491 96.5476 36.6561 97.4814 37.59C97.9484 38.0569 98.5639 38.2904 99.1582 38.2904C99.7525 38.2904 100.368 38.0569 100.835 37.59L133.668 4.75445H190.463L148.546 46.6745C147.612 47.6084 147.612 49.1154 148.546 50.0493C149.013 50.5163 149.628 50.7497 150.223 50.7497C150.817 50.7497 151.432 50.5163 151.899 50.0493L193.816 8.12934V64.9282L153.682 105.065C152.748 105.999 152.748 107.506 153.682 108.44C154.149 108.907 154.765 109.141 155.359 109.141C155.953 109.141 156.569 108.907 157.036 108.44L193.795 71.678V128.477L155.295 166.98C154.361 167.913 154.361 169.421 155.295 170.354C155.762 170.821 156.378 171.055 156.972 171.055C157.566 171.055 158.182 170.821 158.649 170.354L193.774 135.226V190.625H132.628C131.312 190.625 130.251 191.686 130.251 193.002C130.251 194.318 131.312 195.379 132.628 195.379H196.172C197.488 195.379 198.549 194.318 198.549 193.002V2.37723C198.549 1.06126 197.488 0 196.172 0H196.279Z" fill="white"/>
<path d="M144.895 72.7807C144.895 60.4913 134.898 50.4941 122.61 50.4941H22.285C9.99643 50.4941 0 60.4913 0 72.7807V193.022C0 194.338 1.06118 195.399 2.37706 195.399H115.097C116.413 195.399 117.474 194.338 117.474 193.022V95.0673H122.61C134.898 95.0673 144.895 85.0702 144.895 72.7807ZM122.589 55.2486C132.246 55.2486 140.12 63.1232 140.12 72.7807C140.12 82.4383 132.246 90.3129 122.589 90.3129H35.9743C41.1741 86.2376 44.5488 79.8912 44.5488 72.7807C44.5488 65.6702 41.1954 59.3451 35.9743 55.2486H122.589ZM22.2638 55.2486C31.9206 55.2486 39.7947 63.1232 39.7947 72.7807C39.7947 82.4383 31.9206 90.3129 22.2638 90.3129C12.6069 90.3129 4.73287 82.4383 4.73287 72.7807C4.73287 63.1232 12.6069 55.2486 22.2638 55.2486ZM112.677 190.645H4.73287V86.5136C8.80785 91.7138 15.1538 95.0886 22.2638 95.0886H112.677V190.645Z" fill="white"/>
<path d="M22.2634 77.8108C25.0415 77.8108 27.2935 75.5586 27.2935 72.7804C27.2935 70.0022 25.0415 67.75 22.2634 67.75C19.4854 67.75 17.2334 70.0022 17.2334 72.7804C17.2334 75.5586 19.4854 77.8108 22.2634 77.8108Z" fill="white"/>
</svg>
