<svg width="206" height="206" viewBox="0 0 206 206" fill="none" xmlns="http://www.w3.org/2000/svg">
<path d="M203.579 100.608H105.355V2.37723C105.355 1.06126 104.294 0 102.978 0H2.37706C1.06118 0 0 1.06126 0 2.37723V203.593C0 204.909 1.06118 205.971 2.37706 205.971H203.579C204.895 205.971 205.956 204.909 205.956 203.593V102.985C205.956 101.669 204.895 100.608 203.579 100.608ZM4.77536 4.7757H100.601V100.608H4.77536V4.7757ZM4.77536 105.384H100.601V201.216H4.77536V105.384ZM201.202 201.216H105.376V105.384H201.202V201.216Z" fill="white"/>
<path d="M119.914 43.5116C120.529 43.5116 121.124 43.2781 121.591 42.8111L143.366 21.0128C144.3 20.0788 144.3 18.5718 143.366 17.6379C142.432 16.704 140.926 16.704 139.992 17.6379L118.216 39.4151C117.282 40.3491 117.282 41.856 118.216 42.79C118.683 43.2569 119.298 43.4904 119.893 43.4904L119.914 43.5116Z" fill="white"/>
<path d="M119.914 73.4605C120.529 73.4605 121.124 73.2271 121.591 72.7601L173.334 21.0128C174.268 20.0788 174.268 18.5718 173.334 17.6379C172.4 16.704 170.894 16.704 169.96 17.6379L118.216 69.3853C117.282 70.3192 117.282 71.8262 118.216 72.7601C118.683 73.2271 119.298 73.4605 119.893 73.4605H119.914Z" fill="white"/>
<path d="M133.223 87.7249C133.69 88.1919 134.305 88.4254 134.899 88.4254C135.494 88.4254 136.109 88.1919 136.576 87.7249L188.32 35.9776C189.253 35.0437 189.253 33.5367 188.32 32.6028C187.386 31.6689 185.879 31.6689 184.945 32.6028L133.201 84.3501C132.268 85.284 132.268 86.791 133.201 87.7249H133.223Z" fill="white"/>
<path d="M184.944 62.5735L163.168 84.3506C162.234 85.2845 162.234 86.7915 163.168 87.7254C163.635 88.1924 164.251 88.4259 164.845 88.4259C165.439 88.4259 166.055 88.1924 166.522 87.7254L188.297 65.9483C189.231 65.0144 189.231 63.5074 188.297 62.5735C187.363 61.6396 185.856 61.6396 184.923 62.5735H184.944Z" fill="white"/>
</svg>
