<svg width="185" height="185" viewBox="0 0 185 185" fill="none" xmlns="http://www.w3.org/2000/svg">
<path d="M182.377 71.9963H139.759V38.3754C139.759 37.0594 138.698 35.9981 137.382 35.9981H94.7645V2.37724C94.7645 1.06127 93.7033 0 92.3874 0H2.37706C1.06118 0 0 1.06127 0 2.37724V182.41C0 183.726 1.06118 184.788 2.37706 184.788H182.398C183.714 184.788 184.775 183.726 184.775 182.41V74.3948C184.775 73.0788 183.714 72.0175 182.398 72.0175L182.377 71.9963ZM49.7488 143.993V112.749H134.984V143.993H49.7488ZM4.75412 143.993V112.749H44.9947V143.993H4.75412ZM89.9891 107.994H4.75412V76.7508H89.9891V107.994ZM44.9947 71.9963H4.75412V40.7526H44.9947V71.9963ZM139.759 112.749H179.999V143.993H139.759V112.749ZM179.999 107.994H94.7645V76.7508H179.999V107.994ZM135.005 71.9963H49.7701V40.7526H135.005V71.9963ZM4.75412 4.73325H89.9891V35.9769H4.75412V4.73325ZM4.75412 148.768H89.9891V180.012H4.75412V148.768ZM179.999 180.012H94.7645V148.768H179.999V180.012Z" fill="white"/>
<path d="M13.5 87.5L15.3152 86.1119C19.5334 82.8862 25.0038 81.7867 30.1408 83.1321L39.6142 85.6132C41.6089 86.1357 43 87.938 43 90V90M64.5 102.5H69.9414C74.8219 102.5 78.9298 98.847 79.5 94V94M108 94L121.111 96.9432C128.233 98.5421 135.685 96.5028 141 91.5V91.5M146 135.5L146.909 132.166C148.744 125.44 156.369 122.179 162.5 125.5V125.5M57.5 138.5V138.5C58.7697 131.898 65.9072 128.248 72.0034 131.083L81.5 135.5M132.5 123.5L121.5 119M105.5 175.5C107.324 175.728 110.967 175.75 114.503 175.696C118.415 175.637 121.5 172.412 121.5 168.5V168.5M38 154.5V154.5C46.3019 154.5 51.6725 163.801 56.896 170.254L57.5 171M64.5 64.5C65.7621 64.5 68.3514 64.583 71.5457 64.6703C85.6693 65.0568 98.6733 58.6131 108 48V48M9 13V13C13.3617 10.196 18.8512 9.80681 23.5649 11.9673L28 14M73 29.5L78.1967 21.445C80.0796 18.5266 84.52 19.168 85.5 22.5V22.5M9 64.5C9.15709 64.4476 9.43869 64.4318 9.817 64.4409C17.4704 64.6248 22.9386 59.9947 24.5 52.5V52.5" stroke="white" stroke-width="4" stroke-linecap="round"/>
</svg>
