<svg width="206" height="206" viewBox="0 0 206 206" fill="none" xmlns="http://www.w3.org/2000/svg">
<path d="M203.6 0H163.36C162.044 0 160.983 1.06126 160.983 2.37723V40.2433H123.12C121.804 40.2433 120.742 41.3045 120.742 42.6205V80.4865H82.8791C81.5632 80.4865 80.502 81.5478 80.502 82.8637V120.73H42.6386C41.3227 120.73 40.2616 121.791 40.2616 123.107V160.973H24.9168V82.2694L103.084 4.07536C104.018 3.14144 104.018 1.63439 103.084 0.700472C102.15 -0.233442 100.643 -0.233442 99.7095 0.700472L4.77536 95.6413V78.4276L79.1224 4.07536C80.0563 3.14144 80.0563 1.63439 79.1224 0.700472C78.1886 -0.233442 76.6817 -0.233442 75.7479 0.700472L0.721538 75.7319C0.275837 76.1777 0.0212446 76.7933 0.0212446 77.4088V101.372C0.0212446 102.327 0.594293 103.197 1.48569 103.58C1.78283 103.707 2.07995 103.771 2.3983 103.771C3.0138 103.771 3.62924 103.537 4.07494 103.07L20.1202 87.0238V160.973H2.37706C1.06118 160.973 0 162.034 0 163.35V203.593C0 204.909 1.06118 205.971 2.37706 205.971H203.579C204.895 205.971 205.956 204.909 205.956 203.593V2.37723C205.956 1.06126 204.895 0 203.579 0H203.6ZM201.223 201.216H4.79661V165.749H42.6599C43.9757 165.749 45.0369 164.687 45.0369 163.371V125.505H82.9003C84.2162 125.505 85.2774 124.444 85.2774 123.128V85.2622H123.141C124.456 85.2622 125.518 84.2008 125.518 82.8849V45.019H163.381C164.697 45.019 165.758 43.9577 165.758 42.6417V4.7757H201.223V201.216Z" fill="white"/>
</svg>
