<svg width="285" height="222" viewBox="0 0 285 222" fill="none" xmlns="http://www.w3.org/2000/svg">
<path d="M239.542 131.756C226.256 131.756 214.307 137.529 206.072 146.698C200.384 144.066 195.163 142.389 190.855 141.307C222.584 127.001 256.861 63.4313 258.474 60.3961C258.856 59.6744 258.856 58.8254 258.474 58.125C258.092 57.4245 257.37 56.9575 256.564 56.8939L61.3894 43.2247C60.7739 40.4655 59.4368 34.3101 57.3144 24.1432C53.961 8.13931 37.5975 5.6559 37.4914 5.6559L2.76916 0.0312669C1.4745 -0.180986 0.243502 0.710462 0.0312639 2.00521C-0.180975 3.29995 0.710443 4.53097 2.0051 4.74323L36.7698 10.368C37.3004 10.4529 49.9922 12.448 52.6664 25.1407C55.6165 39.2131 71.3858 118.32 71.3858 118.32C71.4283 118.532 75.1849 134.982 89.9567 141.519V184.819C89.9567 195.538 98.6797 204.261 109.398 204.261C115.531 204.261 121.368 201.311 125.018 196.387C127.183 193.479 153.225 156.25 161.205 144.151H178.927C179.288 144.151 189.624 144.682 202.974 150.604C197.668 157.99 194.548 167.032 194.548 176.796C194.548 201.629 214.753 221.836 239.585 221.836C264.417 221.836 284.622 201.629 284.622 176.796C284.622 151.962 264.417 131.756 239.585 131.756H239.542ZM75.9702 117.322L62.3445 48.0642L252.468 61.3936C243.957 76.5273 206.858 139.397 178.948 139.397H103.073C81.0851 139.397 76.1824 118.193 75.9914 117.344L75.9702 117.322ZM121.135 193.542C118.333 197.321 114.025 199.486 109.334 199.486C101.248 199.486 94.6471 192.906 94.6471 184.798V143.132C97.194 143.769 99.9743 144.151 103.052 144.151H155.411C145.988 158.202 123.13 190.826 121.113 193.542H121.135ZM239.542 217.081C217.342 217.081 199.259 199.019 199.259 176.796C199.259 167.775 202.252 159.412 207.282 152.684C211.442 154.806 215.793 157.481 220.186 160.792C216.578 165.143 214.413 170.704 214.413 176.796C214.413 190.635 225.683 201.905 239.521 201.905C253.359 201.905 264.629 190.635 264.629 176.796C264.629 162.957 253.359 151.686 239.521 151.686C233.493 151.686 227.954 153.83 223.624 157.375C219.189 153.936 214.753 151.156 210.508 148.906C217.852 141.286 228.124 136.531 239.521 136.531C261.721 136.531 279.804 154.594 279.804 176.817C279.804 199.04 261.742 217.103 239.521 217.103L239.542 217.081ZM237.632 178.239C238.099 178.855 238.799 179.173 239.521 179.173C240.03 179.173 240.54 179.003 240.964 178.685C242.004 177.878 242.217 176.392 241.41 175.352C236.911 169.494 232.178 164.591 227.402 160.495C230.798 157.969 234.979 156.462 239.521 156.462C250.748 156.462 259.875 165.589 259.875 176.817C259.875 188.045 250.748 197.172 239.521 197.172C228.294 197.172 219.167 188.045 219.167 176.817C219.167 171.871 220.95 167.35 223.879 163.806C228.57 167.775 233.239 172.529 237.611 178.26L237.632 178.239Z" fill="white"/>
</svg>
