<svg width="233" height="213" viewBox="0 0 233 213" fill="none" xmlns="http://www.w3.org/2000/svg">
<path d="M230.597 18.9753L204.831 12.9262V9.82721C204.831 4.41475 200.417 0 195.005 0H29.5436C28.6522 0 27.8245 0.509377 27.4212 1.29471L22.3911 11.1857H2.37707C1.06119 11.1857 0 12.2469 0 13.5629V48.33C0 55.6103 5.83656 61.5533 13.0951 61.7019C14.1351 61.9566 19.3137 63.4849 22.5397 68.579C25.4898 73.2486 25.9992 79.6161 24.0254 87.4695L5.45453 161.567C5.41208 161.758 5.39085 161.949 5.39085 162.14C5.39085 169.081 11.0364 174.706 17.9554 174.706H41.1742V209.897C41.1742 211.213 42.2354 212.274 43.5513 212.274C44.8672 212.274 45.9284 211.213 45.9284 209.897V174.706H71.8639C75.472 174.706 78.889 173.305 81.2236 170.864C83.4309 168.55 84.577 165.409 84.4284 162.034C84.3011 159.147 82.7305 156.367 79.7804 153.777L79.4833 153.523C76.7029 151.082 72.4794 147.431 75.1748 138.92C77.0001 133.146 93.873 73.0151 97.0354 61.6808H99.8582C99.6459 68.579 100.134 87.894 110.385 104.556C110.831 105.278 111.616 105.681 112.423 105.681C112.847 105.681 113.272 105.575 113.675 105.32C114.8 104.62 115.139 103.155 114.46 102.051C104.888 86.5143 104.485 67.921 104.655 61.6595H146.593V82.5877L135.111 88.6157C134.326 89.019 133.838 89.8468 133.838 90.717V107.336C117.92 117.058 108.072 134.484 108.072 153.162V209.855C108.072 211.171 109.133 212.232 110.449 212.232H212.981C214.297 212.232 215.358 211.171 215.358 209.855V153.162C215.358 134.484 205.532 117.058 189.593 107.336V90.717C189.593 89.8256 189.104 89.019 188.319 88.6157L176.837 82.5877V61.6595H194.941C200.353 61.6595 204.768 57.2447 204.768 51.8322V48.712L230.533 42.6629C231.616 42.4081 232.38 41.453 232.38 40.3492V21.2253C232.38 20.1216 231.616 19.1664 230.533 18.9117L230.597 18.9753ZM173.42 86.196L184.902 92.2239V108.759C184.902 109.608 185.348 110.393 186.091 110.817C201.244 119.52 210.647 135.778 210.647 153.226V207.52H112.868V153.226C112.868 135.778 122.271 119.541 137.424 110.817C138.167 110.393 138.613 109.608 138.613 108.759V92.2239L150.095 86.196C150.88 85.7927 151.368 84.965 151.368 84.0947V61.7232H172.104V84.0947C172.104 84.9862 172.592 85.7927 173.378 86.196H173.42ZM200.056 51.8958C200.056 54.6763 197.785 56.9475 195.005 56.9475H95.2738C94.2126 56.9475 93.2575 57.6691 92.9816 58.6879C92.7694 59.4096 72.628 131.363 70.6754 137.519C67.0249 149.002 73.3496 154.499 76.3846 157.152L76.6817 157.407C78.0188 158.574 79.6106 160.357 79.6955 162.289C79.7804 164.39 79.1437 166.237 77.8066 167.616C76.3634 169.123 74.1985 169.994 71.8851 169.994H17.9554C13.753 169.994 10.2936 166.64 10.145 162.459L28.631 88.6581C30.9231 79.4675 30.2227 71.8689 26.551 66.0532C25.4474 64.3127 24.1527 62.8905 22.8369 61.7232H56.4554C57.7713 61.7232 58.8325 60.6619 58.8325 59.3459C58.8325 58.03 57.7713 56.9687 56.4554 56.9687H13.371C8.61688 56.9687 4.77536 53.1057 4.77536 48.3725V15.9826H23.8556C24.747 15.9826 25.5747 15.4732 25.978 14.6879L31.008 4.79681H195.005C197.785 4.79681 200.056 7.06794 200.056 9.84845V51.9383V51.8958ZM227.668 38.5239L204.831 43.894V17.808L227.668 23.178V38.5239Z" fill="white"/>
<path d="M56.6889 26.3398C54.2057 26.3398 52.1895 28.3562 52.1895 30.8396C52.1895 33.323 54.2057 35.3394 56.6889 35.3394C59.1721 35.3394 61.1884 33.323 61.1884 30.8396C61.1884 28.3562 59.1721 26.3398 56.6889 26.3398Z" fill="white"/>
<path d="M81.7758 26.3398C79.2926 26.3398 77.2764 28.3562 77.2764 30.8396C77.2764 33.323 79.2926 35.3394 81.7758 35.3394C84.259 35.3394 86.2753 33.323 86.2753 30.8396C86.2753 28.3562 84.259 26.3398 81.7758 26.3398Z" fill="white"/>
<path d="M161.768 28.4629H119.066C117.75 28.4629 116.688 29.5241 116.688 30.8401C116.688 32.1561 117.75 33.2173 119.066 33.2173H161.768C163.084 33.2173 164.145 32.1561 164.145 30.8401C164.145 29.5241 163.084 28.4629 161.768 28.4629Z" fill="white"/>
</svg>
