<svg width="206" height="206" viewBox="0 0 206 206" fill="none" xmlns="http://www.w3.org/2000/svg">
<path d="M173.187 75.7107L180.042 54.8462C183.714 43.6817 182.652 34.4699 177.092 28.9089C171.51 23.3266 162.299 22.2866 151.135 25.9586L130.272 32.8144C100.24 11.5041 64.4568 0 26.8694 0C25.5535 0 24.4923 1.06126 24.4923 2.37723C24.4923 3.6932 25.5535 4.75448 26.8694 4.75448C62.2283 4.75448 95.9954 15.2186 124.605 34.661L90.7107 45.8042C71.3758 36.5076 49.7275 31.2861 26.8694 31.2861C25.5535 31.2861 24.4923 32.3474 24.4923 33.6634C24.4923 34.9793 25.5535 36.0406 26.8694 36.0406C47.2018 36.0406 66.5367 40.3069 84.0676 47.9905L81.8179 48.7334C70.7391 52.3841 63.5018 59.155 61.443 67.8361C61.4218 67.9423 61.4006 68.0484 61.3793 68.1545C50.4703 64.7585 38.8821 62.8906 26.8694 62.8906C25.5535 62.8906 24.4923 63.9519 24.4923 65.2679C24.4923 66.5838 25.5535 67.6451 26.8694 67.6451C38.7123 67.6451 50.1307 69.5342 60.8487 72.9727C60.8912 80.1044 64.3719 87.4271 71.015 94.0494L89.7768 112.813L74.5594 128.031L63.905 117.376C63.0136 116.485 61.4218 116.485 60.5304 117.376L54.2906 123.616C53.6114 124.295 53.3992 125.336 53.7812 126.227C53.8025 126.291 56.4342 132.679 50.5977 138.729C48.3479 141.042 41.6836 145.266 34.6161 149.723C24.3013 156.24 12.607 163.626 6.13369 170.142C2.16483 174.111 0 179.375 0 184.979C0 190.582 2.18605 195.846 6.13369 199.815C10.1025 203.784 15.3661 205.949 20.9692 205.949C26.5723 205.949 31.8358 203.763 35.8046 199.815C42.2991 193.341 49.7062 181.646 56.222 171.331C60.679 164.263 64.9025 157.598 67.2159 155.348C73.1798 149.575 79.462 152.058 79.7167 152.164C80.6081 152.546 81.6481 152.355 82.3273 151.655L88.5671 145.415C89.5009 144.481 89.5009 142.974 88.5671 142.04L77.9127 131.385L93.1302 116.166L111.892 134.929C118.514 141.552 125.836 145.054 132.967 145.096C136.406 155.815 138.295 167.234 138.295 179.078C138.295 180.394 139.356 181.455 140.672 181.455C141.987 181.455 143.049 180.394 143.049 179.078C143.049 167.064 141.202 155.475 137.785 144.566C137.891 144.544 137.997 144.523 138.104 144.502C146.784 142.443 153.554 135.205 157.205 124.126L157.948 121.876C165.631 139.408 169.897 158.744 169.897 179.078C169.897 180.394 170.958 181.455 172.274 181.455C173.59 181.455 174.651 180.394 174.651 179.078C174.651 156.218 169.43 134.569 160.134 115.232L171.276 81.3354C190.739 109.947 201.181 143.717 201.181 179.078C201.181 180.394 202.242 181.455 203.558 181.455C204.874 181.455 205.935 180.394 205.935 179.078C205.935 141.509 194.432 105.702 173.123 75.6683L173.187 75.7107ZM80.0139 147.283C77.0001 146.518 70.2509 145.818 63.9262 151.931C61.1883 154.563 57.2407 160.845 52.2107 168.784C46.1406 178.378 38.585 190.327 32.4513 196.44C29.395 199.497 25.32 201.195 20.9904 201.195C16.6607 201.195 12.5857 199.518 9.52952 196.44C6.47328 193.384 4.77536 189.309 4.77536 184.979C4.77536 180.649 6.45206 176.573 9.52952 173.517C15.642 167.383 27.591 159.827 37.1842 153.756C45.1219 148.747 51.3829 144.778 54.0359 142.04C60.1484 135.715 59.448 128.965 58.6839 125.951L62.2071 122.428L83.5158 143.738L79.9927 147.261L80.0139 147.283ZM137.064 139.917C130.06 141.594 122.334 138.644 115.309 131.597L96.5473 112.834L106.586 102.794C107.52 101.86 107.52 100.353 106.586 99.4194C105.652 98.4855 104.145 98.4855 103.212 99.4194L93.1727 109.459L74.4108 90.6958C67.3857 83.6702 64.4356 75.9442 66.091 68.9398C67.7677 61.9355 73.8802 56.3745 83.3248 53.2756L152.621 30.5008C156.526 29.2273 160.091 28.5905 163.254 28.5905C167.668 28.5905 171.234 29.8428 173.717 32.3049C177.962 36.55 178.599 44.0213 175.521 53.4029L152.748 122.725C149.649 132.17 144.089 138.283 137.085 139.96L137.064 139.917Z" fill="white"/>
</svg>
