<svg width="219" height="219" viewBox="0 0 219 219" fill="none" xmlns="http://www.w3.org/2000/svg">
<path d="M153.767 64.8013C154.233 65.2683 154.849 65.5016 155.443 65.5016C156.038 65.5016 156.653 65.2683 157.12 64.8013L217.82 4.09693C218.754 3.16302 218.754 1.65583 217.82 0.72192C216.886 -0.211994 215.379 -0.211994 214.445 0.72192L153.745 61.4266C152.811 62.3605 152.811 63.8674 153.745 64.8013H153.767Z" fill="white"/>
<path d="M119.958 30.0127C120.573 30.0127 121.168 29.7793 121.635 29.3124L146.87 4.07545C147.804 3.14153 147.804 1.63435 146.87 0.700436C145.936 -0.233479 144.429 -0.233479 143.495 0.700436L118.26 25.9374C117.326 26.8713 117.326 28.3785 118.26 29.3124C118.727 29.7793 119.342 30.0127 119.937 30.0127H119.958Z" fill="white"/>
<path d="M214.467 71.677L189.232 96.9139C188.298 97.8479 188.298 99.3548 189.232 100.289C189.699 100.756 190.314 100.989 190.908 100.989C191.503 100.989 192.118 100.756 192.585 100.289L217.82 75.0518C218.754 74.1178 218.754 72.6109 217.82 71.677C216.886 70.7431 215.379 70.7431 214.446 71.677H214.467Z" fill="white"/>
<path d="M136.023 47.057C136.49 47.5239 137.106 47.7573 137.7 47.7573C138.294 47.7573 138.91 47.5239 139.377 47.057L182.334 4.09693C183.268 3.16302 183.268 1.65583 182.334 0.72192C181.4 -0.211994 179.893 -0.211994 178.959 0.72192L136.002 43.682C135.068 44.6159 135.068 46.1231 136.002 47.057H136.023Z" fill="white"/>
<path d="M214.466 36.2102L171.509 79.1702C170.575 80.1041 170.575 81.6111 171.509 82.545C171.976 83.0119 172.591 83.2453 173.186 83.2453C173.78 83.2453 174.395 83.0119 174.862 82.545L217.819 39.585C218.753 38.651 218.753 37.1441 217.819 36.2102C216.885 35.2763 215.379 35.2763 214.445 36.2102H214.466Z" fill="white"/>
<path d="M83.537 13.2668C82.6032 12.3329 81.0963 12.3329 80.1624 13.2668L60.1271 33.3037L54.8212 27.9973C52.6776 25.8536 49.7911 24.6648 46.7349 24.6648C43.6787 24.6648 40.7922 25.8536 38.6486 27.9973L15.7905 50.8568C11.3335 55.3141 11.3335 62.5732 15.7905 67.0305L76.7879 128.032C78.1674 129.412 78.9315 131.258 78.9315 133.211C78.9315 135.164 78.1674 137.01 76.7879 138.39L70.9513 144.227L60.9124 134.187C60.021 133.296 58.4292 133.296 57.5378 134.187L51.6164 140.109C50.9372 140.789 50.7462 141.829 51.107 142.72C51.2131 142.975 53.5265 148.875 48.1144 154.479C45.9921 156.665 39.6674 160.677 32.9606 164.901C23.1552 171.098 12.0551 178.124 5.87901 184.3C2.10117 188.078 0 193.109 0 198.479C0 203.828 2.07995 208.858 5.87901 212.658C9.65686 216.436 14.6869 218.516 20.0565 218.516C25.4049 218.516 30.435 216.436 34.2341 212.658C40.4314 206.502 47.4353 195.38 53.6326 185.574C57.8774 178.867 61.8675 172.542 64.0536 170.419C69.6567 165.007 75.5781 167.32 75.7903 167.426C76.6817 167.808 77.7217 167.617 78.4009 166.917L84.3223 160.995C84.768 160.549 85.0227 159.934 85.0227 159.318C85.0227 158.703 84.768 158.087 84.3223 157.642L74.2834 147.602L80.12 141.765C82.4122 139.473 83.6644 136.437 83.6644 133.211C83.6644 129.985 82.4122 126.95 80.12 124.657L19.1227 63.6557C16.5121 61.045 16.5121 56.8213 19.1227 54.2106L41.9807 31.3509C43.233 30.0986 44.9096 29.398 46.6924 29.398C48.4752 29.398 50.1519 30.0986 51.4041 31.3509L56.7101 36.6572L36.6748 56.6938C35.7409 57.6277 35.7409 59.1349 36.6748 60.0688L158.436 181.838C158.903 182.305 159.518 182.539 160.113 182.539C160.707 182.539 161.322 182.305 161.789 181.838L205.235 138.39C206.168 137.456 206.168 135.949 205.235 135.015L83.4734 13.2456L83.537 13.2668ZM76.0875 162.544C73.1586 161.823 66.7702 161.207 60.7639 167.023C58.1533 169.549 54.3967 175.513 49.6213 183.048C43.8485 192.175 36.696 203.509 30.8807 209.304C27.9942 212.191 24.1527 213.782 20.0778 213.782C16.0028 213.782 12.1612 212.191 9.27481 209.304C6.38836 206.417 4.79658 202.576 4.79658 198.5C4.79658 194.425 6.38836 190.583 9.27481 187.697C15.0689 181.881 26.4025 174.707 35.5287 168.955C43.0844 164.179 49.0271 160.422 51.5527 157.811C57.3681 151.804 56.7313 145.416 56.0097 142.487L59.2357 139.26L79.3135 159.34L76.0875 162.566V162.544ZM160.155 176.808L41.7685 58.4131L81.8604 18.3185L200.247 136.713L160.155 176.808Z" fill="white"/>
</svg>
